<svg width="523" height="135" viewBox="0 0 523 135" fill="none" xmlns="http://www.w3.org/2000/svg">
<path d="M323.3 68.297C323.3 69.197 323.3 69.697 323.3 70.297C323.2 72.497 322.1 73.697 320 73.797C313.2 73.897 306.5 73.797 299.6 73.797C300.6 70.597 301.5 67.597 302.5 64.297C300.6 64.797 298.9 65.197 296.8 65.697C300.1 60.097 303.8 56.097 310.3 56.097C317.4 56.097 324.5 56.097 331.7 56.097C331.4 57.397 331.1 58.597 330.8 59.697C330.1 62.097 329.4 62.597 326.8 62.697C323.8 62.797 320.7 62.697 317.7 62.797C313.7 62.897 312.5 64.097 312.2 68.297C315.9 68.297 319.5 68.297 323.3 68.297Z" fill="#C81C2C"/>
<path d="M54.8 73.397C56 69.397 57.2 65.597 58.4 61.697C58.7 60.597 59.1 59.497 59.5 58.397C60.4 55.897 60.6 55.697 63.2 55.697C68.2 55.697 73.1 55.697 78.1 55.697C83.7 55.697 87.5 59.597 86.5 65.397C86.2 66.997 85.8 68.697 85.3 70.297C84.5 72.697 82.9 73.797 79.9 73.797C72.6 73.797 65.2 73.797 57.9 73.797C56.8 73.797 55.9 73.497 54.8 73.397ZM64.4 72.197C65.3 72.397 65.9 72.597 66.6 72.697C71.2 73.197 76 72.097 77.2 66.297C77.7 63.897 77.1 62.197 75 61.497C72.3 60.597 68.8 60.597 67.6 62.197C67.5 62.297 67.5 62.397 67.4 62.497C66.4 65.697 65.4 68.897 64.4 72.197Z" fill="#C81C2C"/>
<path d="M200.3 73.797C201.4 70.397 202.3 67.297 203.3 64.197C203.9 62.097 204.6 59.997 205.2 57.897C205.7 56.397 206.6 55.597 208.3 55.597C213.8 55.597 219.4 55.397 224.9 55.697C230.2 55.997 233.4 59.397 232 65.897C231.6 67.897 230.8 69.897 229.9 71.797C229.5 72.597 228.4 73.297 227.5 73.397C222.1 73.597 216.8 73.697 211.4 73.697C207.8 73.797 204.3 73.797 200.3 73.797ZM210.4 72.197C211.4 72.497 211.9 72.697 212.5 72.697C217.4 73.097 221 72.697 223.1 67.197C224.2 64.397 223 61.697 220.5 61.197C219.4 60.997 218.3 60.897 217.2 60.897C214.6 60.897 214 61.197 213.1 63.697C212.1 66.497 211.3 69.297 210.4 72.197Z" fill="#C81C2C"/>
<path d="M333.4 73.697C335 68.497 336.5 63.697 338 58.897C338.6 57.097 340.6 55.597 342.6 55.597C347.6 55.597 352.6 55.597 357.6 55.697C362.8 55.897 366 59.797 365.2 64.897C364.9 66.997 364.1 68.997 363.5 70.997C362.9 72.697 361.5 73.297 359.8 73.397C357.8 73.497 355.7 73.597 353.7 73.597C347.1 73.697 340.4 73.697 333.4 73.697ZM343.2 72.197C344.5 72.497 345.4 72.797 346.3 72.797C351.3 73.197 355.2 71.197 356.2 65.497C356.5 63.897 355.8 62.497 354.3 61.697C352.1 60.597 349.8 60.797 347.5 61.297C347 61.397 346.4 62.097 346.3 62.597C345.2 65.697 344.2 68.797 343.2 72.197Z" fill="#C81C2C"/>
<path d="M169.8 64.897C168.8 65.297 167.9 65.597 166.8 65.997C168.3 61.797 170.7 58.697 174.7 56.897C176.8 55.997 179 55.597 181.3 55.597C187.3 55.597 193.3 55.597 199.7 55.597C199.2 57.697 198.9 59.797 198.1 61.497C197.7 62.297 196.1 62.797 195 62.797C191.5 62.997 187.9 62.797 184.3 62.897C183 62.897 181.6 63.197 180.6 63.897C179.7 64.497 178.8 65.997 179 66.797C179.2 67.597 180.7 68.497 181.8 68.697C183.9 69.097 186.1 68.997 188.2 69.097C191.4 69.197 193.5 70.697 194.4 73.597C190.8 73.597 187.3 73.597 183.7 73.597C181 73.597 178.3 73.497 175.7 73.597C171 73.697 171 72.497 170.4 68.397C170.2 67.297 170.2 66.197 170.2 64.997C170.2 64.997 170 64.897 169.8 64.897Z" fill="#C81C2C"/>
<path d="M267.5 64.697C266.4 65.097 265.6 65.497 264.5 65.997C265.1 63.597 266.3 61.797 267.8 60.197C270.6 57.197 274.1 55.797 278.2 55.797C284.4 55.797 290.7 55.797 297 55.797C296.6 57.597 296.3 59.297 295.9 60.897C295.5 62.697 294.1 62.997 292.5 62.997C289.2 62.997 285.8 62.897 282.5 63.097C281 63.197 279.5 63.497 278.1 63.997C276.7 64.397 275.8 65.597 276.2 66.897C276.5 67.797 277.8 68.797 278.8 68.997C281.5 69.497 284.3 69.497 287.1 69.797C289.3 69.997 290.7 71.397 291.8 73.597C290.8 73.697 290 73.797 289.1 73.697C283.4 73.697 277.8 73.497 272.1 73.597C269.2 73.597 268.5 73.197 267.9 69.597C267.8 68.797 267.7 67.997 267.6 67.197C267.7 66.397 267.6 65.597 267.5 64.697Z" fill="#C81C2C"/>
<path d="M127.7 73.697C128.9 69.797 130 65.997 131.1 62.297C131.6 60.697 132.1 59.097 132.6 57.497C133 56.197 133.7 55.597 135.1 55.697C138 55.797 140.8 55.697 143.7 55.697C145.7 55.697 147.3 56.897 147.7 58.897C148.8 63.797 149.7 68.697 150.7 73.797C148.4 73.797 146.3 73.797 144.1 73.797C142.6 73.797 141.8 72.797 141.3 71.497C140.9 70.297 140.8 69.097 140.5 67.897C140.5 67.797 140.4 67.697 140.4 67.597C140 66.997 139.1 67.097 138.9 67.697C138.5 68.797 138.1 69.997 137.7 71.197C137.3 72.697 136.3 73.597 134.7 73.597C132.5 73.797 130.2 73.697 127.7 73.697Z" fill="#C81C2C"/>
<path d="M109.5 63.997C108.2 66.297 107 68.697 105.6 70.897C104.9 71.997 103.8 73.297 102.7 73.497C100.4 73.897 98 73.897 95.6 73.697C94.4 73.597 95.1 72.597 95.4 72.097C97 69.397 98.7 66.797 100.4 64.197C101.5 62.497 102.7 60.797 103.8 59.097C105.3 56.797 107.4 55.697 110 55.597C112.2 55.497 114.4 55.597 116.6 55.697C118 55.697 118.9 56.397 119 57.897C119.1 62.597 119.2 67.297 119.2 71.997C119.2 72.497 118.5 73.397 118 73.497C116.4 73.797 114.7 74.097 113 73.997C111.1 73.897 110.6 72.497 110.5 70.797C110.5 69.197 110.5 67.497 110.5 65.897C110.5 65.297 110.3 64.697 110.2 64.097C110.2 63.797 109.7 63.697 109.5 63.997Z" fill="#C81C2C"/>
<path d="M258.6 73.797C256.6 73.797 254.8 73.797 253 73.797C251.3 73.797 250.4 72.797 250.3 71.097C250.3 69.197 250.3 67.397 250.3 65.497C250.3 64.497 249 64.097 248.5 64.897C247.2 67.097 245.8 69.397 244.6 71.597C243.8 73.097 242.5 73.697 240.9 73.697C238.7 73.697 236.5 73.697 233.8 73.697C235 71.697 236.1 69.997 237.1 68.197C239 65.097 240.9 61.997 243 58.997C244.4 56.897 246.5 55.797 249 55.597C251.4 55.397 253.8 55.597 256.1 55.597C257.6 55.597 258.4 56.497 258.5 57.797C258.6 63.197 258.6 68.397 258.6 73.797Z" fill="#C81C2C"/>
<path d="M417 73.797C417.6 71.597 418 69.597 418.7 67.597C420 63.697 421.8 59.997 425.3 57.597C426.8 56.597 428.9 55.797 430.7 55.697C437 55.497 443.3 55.597 449.9 55.597C449.2 57.697 448.7 59.697 447.9 61.497C447.7 61.997 446.8 62.397 446.2 62.497C442.5 62.697 438.8 62.897 435.1 62.797C432.5 62.697 430.8 63.597 429.9 66.097C429.2 67.997 428.5 69.897 427.6 71.697C427.1 72.497 426.1 73.497 425.2 73.597C422.6 73.997 420 73.797 417 73.797Z" fill="#C81C2C"/>
<path d="M110.7 88.897C110.5 87.197 110.6 85.697 110.2 84.197C110 83.397 109.2 82.297 108.5 82.197C106.1 81.897 103.7 81.797 101.3 81.897C99.1 81.997 98 83.497 97.2 85.397C96 88.397 95.2 88.897 91.9 88.897C90.9 88.897 89.8 88.697 88.8 88.797C87.8 88.797 86.7 88.897 85.3 88.997C86.7 86.697 87.9 84.597 89.1 82.497C89.4 82.097 89.7 81.597 89.9 81.197C93 76.397 91.4 76.897 97.8 76.797C104 76.797 110.3 76.797 116.5 76.797C118.8 76.797 119.1 77.097 119.1 79.397C119.1 81.497 119.1 83.597 119.1 85.697C119.1 88.097 118.3 88.897 116 88.897C114.4 88.897 112.6 88.897 110.7 88.897Z" fill="#C81C2C"/>
<path d="M258.5 76.997C258.5 80.997 258.5 84.797 258.5 88.697C256.2 88.697 254 88.797 251.7 88.697C250.5 88.697 249.9 87.797 249.9 86.597C249.9 85.097 249.9 83.597 249.9 81.897C246.5 81.897 243.2 81.797 239.9 81.997C239.3 81.997 238.3 82.697 238.1 83.297C236.3 88.597 232.9 89.297 228.1 88.897C227.2 88.797 226.3 88.597 225.1 88.497C226.9 85.397 228.8 82.597 230.5 79.497C231.6 77.297 233.2 76.697 235.6 76.797C242.5 76.997 249.5 76.897 256.4 76.897C257 76.797 257.7 76.897 258.5 76.997Z" fill="#C81C2C"/>
<path d="M360.2 88.497C357.4 88.497 354.8 88.597 352.1 88.397C351.6 88.397 351 87.497 350.8 86.997C350.1 85.297 349.5 83.497 348.9 81.797C348.1 79.497 347 78.897 344 78.997C342 79.097 340.6 80.297 340.1 82.397C339.8 83.697 339.3 84.897 339 86.197C338.5 88.497 336.6 88.697 334.8 88.797C333 88.897 331.1 88.797 329.1 88.797C330.2 85.197 331.1 81.797 332.3 78.397C332.6 77.697 333.7 76.797 334.5 76.797C342.3 76.697 350.1 76.697 357.9 76.697C358 76.697 358.1 76.797 358.4 76.897C356.1 79.297 358.1 81.497 358.6 83.797C358.9 85.397 359.6 86.897 360.2 88.497Z" fill="#C81C2C"/>
<path d="M80.9 88.597C78.2 88.597 75.9 88.697 73.5 88.497C73 88.497 72.2 87.897 72 87.397C71.2 85.697 70.6 83.797 70 81.997C69.3 79.897 68.4 79.197 66.2 78.997C63.6 78.797 62.2 79.497 61.4 81.497C60.8 83.097 60.3 84.797 59.8 86.397C59.2 88.097 58 88.797 56.2 88.797C54.3 88.797 52.4 88.797 50.2 88.797C50.6 87.197 50.8 85.997 51.1 84.997C51.7 83.097 52.4 81.197 52.9 79.197C53.4 77.197 54.7 76.697 56.5 76.697C62.9 76.697 69.3 76.697 75.7 76.697C76.7 76.697 77.7 76.697 79 76.697C77.3 81.097 80.5 84.497 80.9 88.597Z" fill="#C81C2C"/>
<path d="M308.8 75.697C309.5 79.597 310 79.997 314 79.997C317.5 79.997 321.1 79.997 324.6 79.997C325.3 84.697 323.5 87.197 318.7 87.397C314.1 87.597 309.6 88.197 305 87.197C301 86.297 297.7 80.897 299.3 77.197C299.6 76.497 300.5 75.797 301.2 75.697C303.7 75.597 306.2 75.697 308.8 75.697Z" fill="#C81C2C"/>
<path d="M426.1 76.797C426.4 80.197 427.1 80.897 430.3 80.897C434.1 80.897 438 80.897 442.2 80.897C441.5 83.297 440.9 85.297 440.1 87.297C439.9 87.797 438.8 88.297 438.1 88.297C432.8 88.397 427.5 88.297 422.2 88.397C418.3 88.397 414.6 82.897 416 78.297C416.2 77.697 417.3 76.997 418 76.997C420.7 76.697 423.3 76.797 426.1 76.797Z" fill="#C81C2C"/>
<path d="M194.1 76.797C194.2 82.797 189.6 88.197 184 88.197C178 88.297 171.9 88.797 165.9 89.097C165.6 89.097 165.3 89.097 164.9 88.997C165.5 86.697 165.9 84.497 166.6 82.397C166.7 81.997 167.6 81.497 168.1 81.497C172.5 81.397 176.8 81.397 181.2 81.397C183.9 81.397 185.8 80.597 186.5 77.697C186.6 77.297 187.3 76.797 187.7 76.797C189.7 76.797 191.8 76.797 194.1 76.797Z" fill="#C81C2C"/>
<path d="M291.4 77.097C292 81.697 287.9 87.697 283.3 87.997C276.5 88.397 269.6 88.097 262.5 88.097C262.9 86.397 263 84.697 263.7 83.197C264.1 82.397 265.4 81.797 266.3 81.697C270.4 81.497 274.6 81.597 278.7 81.497C282 81.397 282.4 81.097 283.6 77.897C283.7 77.497 284.3 77.097 284.6 77.097C286.5 76.997 288.3 77.097 290.2 77.097C290.6 76.997 291 77.097 291.4 77.097Z" fill="#C81C2C"/>
<path d="M390 77.097C388.5 79.497 387.1 81.897 385.6 84.197C383.9 86.797 380.9 88.397 377.7 88.397C375.1 88.397 372.4 88.197 369.7 88.097V76.797C371.8 76.797 373.9 76.697 376 76.897C376.6 76.897 377.2 77.697 377.6 78.197C377.9 78.597 378.1 78.997 378.5 79.597C378.6 79.797 378.9 79.797 379 79.597C381.5 74.797 386 77.297 389.6 76.597C389.8 76.897 389.8 76.897 390 77.097Z" fill="#C81C2C"/>
<path d="M402.5 73.797C404.3 68.197 405.9 62.797 407.7 57.297C407.9 56.597 408.8 55.797 409.5 55.797C412.1 55.597 414.7 55.697 417.5 55.697C415.9 61.097 414.5 66.297 412.9 71.597C412.5 72.897 411.4 73.697 410 73.797C407.5 73.897 405.1 73.797 402.5 73.797Z" fill="#C81C2C"/>
<path d="M142.6 77.097C148.6 77.097 154.2 77.097 160.2 77.097C159.1 80.697 158.1 84.197 156.8 87.597C156.6 88.197 155.2 88.697 154.3 88.797C152 88.997 149.8 88.897 147.5 88.797C145.8 88.697 144.7 87.997 144.4 86.097C143.9 83.197 143.3 80.197 142.6 77.097Z" fill="#C81C2C"/>
<path d="M383 73.497C384.3 71.097 385.5 68.897 386.7 66.797C388.5 63.697 390.3 60.597 392 57.397C392.7 56.197 393.5 55.597 394.9 55.697C397.4 55.797 399.9 55.697 402.7 55.697C401.6 57.597 400.6 59.297 399.6 61.097C397.4 64.697 395.2 68.297 393.1 71.997C392.4 73.097 391.6 73.697 390.3 73.597C388 73.497 385.7 73.497 383 73.497Z" fill="#C81C2C"/>
<path d="M166.6 55.597C164.9 61.397 163.3 66.897 161.4 72.297C161.1 72.997 159.6 73.597 158.5 73.697C156.4 73.897 154.2 73.797 151.9 73.797C152.4 72.097 152.8 70.497 153.3 68.997C154.5 65.297 155.7 61.597 156.8 57.897C157.3 56.297 158.1 55.497 159.9 55.597C162.1 55.697 164.2 55.597 166.6 55.597Z" fill="#C81C2C"/>
<path d="M195.8 88.497C196.7 85.697 197.5 83.097 198.4 80.597C199.6 76.897 199.7 76.897 203.6 76.897C210.3 76.897 217 76.897 223.7 76.897C224.2 76.897 224.8 76.997 225.3 77.297C223.6 78.397 221.7 79.097 219.7 79.097C216.8 79.197 214 79.197 211.1 79.197C208.6 79.197 208.1 79.497 207.4 81.897C206.9 83.497 206.3 85.097 205.7 86.597C205 88.397 203.6 89.297 201.8 89.197C199.9 89.097 198 88.697 195.8 88.497Z" fill="#C81C2C"/>
<path d="M369.7 73.797C369.7 67.597 369.7 61.797 369.7 55.597C372 55.597 374.2 55.497 376.5 55.697C377.1 55.797 377.9 56.997 377.9 57.697C378 62.497 378 67.297 377.9 71.997C377.9 72.597 376.8 73.597 376.1 73.597C374 73.897 371.9 73.797 369.7 73.797Z" fill="#C81C2C"/>
<path d="M397.9 88.797C399 85.197 400.1 81.797 401.1 78.497C401.5 77.197 402.2 76.697 403.5 76.697C405.9 76.797 408.3 76.697 411 76.697C410.7 78.097 410.5 79.297 410.1 80.397C409.5 82.497 408.7 84.497 408.1 86.697C407.7 88.097 406.8 88.697 405.4 88.797C403 88.897 400.5 88.797 397.9 88.797Z" fill="#C81C2C"/>
<path d="M136 76.697C135.2 79.397 134.6 81.797 133.9 84.297C133.7 84.897 133.5 85.497 133.3 86.097C132.4 88.697 132.2 88.797 129.5 88.897C127.5 88.897 125.4 88.897 123.1 88.897C124 86.197 124.8 83.597 125.6 80.997C126.9 76.797 126.9 76.797 131.3 76.697C132.7 76.697 134.2 76.697 136 76.697Z" fill="#C81C2C"/>
<path d="M336.9 19.697C336.9 19.697 327.7 7.19698 291.7 8.79698C291.7 8.79698 241.9 12.197 208.1 43.097C208.1 43.097 264.2 9.69699 301.6 11.697C301.6 11.697 361.9 12.997 330.5 62.897C330.6 62.897 356.4 37.897 336.9 19.697Z" fill="#D9DBDB"/>
<path d="M208.1 43.097L231.3 30.997C231.3 30.997 285.1 0.797027 325.2 21.997C339.8 31.397 340.3 44.997 330.5 62.897C330.5 62.897 334.5 60.197 336 57.197C336 57.197 352.6 28.297 323.2 16.297C293.8 4.29703 255.3 19.497 255.3 19.497C255.3 19.497 231.9 27.297 208.1 43.097Z" fill="#BCBEC0"/>
<path d="M336.9 21.097C336.9 21.097 327.7 8.59701 291.7 10.197C291.7 10.197 241.9 13.597 208.1 44.497C208.1 44.497 264.2 11.097 301.6 13.097C301.6 13.097 361.9 14.397 330.5 64.297C330.6 64.297 356.4 39.297 336.9 21.097Z" fill="#D9DBDB"/>
<path d="M213.5 38.197C236.4 19.797 257.8 10.997 271.5 6.49701C300.4 -2.90299 316 0.397014 321.5 1.29701C330.7 2.69701 344.8 6.49701 350.1 17.997C355.4 29.497 349.9 45.897 336.1 58.597C336.1 58.597 365.6 11.497 298.9 10.097C298.9 10.097 262.8 9.49702 225.9 31.897C221.7 33.997 217.6 36.097 213.5 38.197Z" fill="#6B6D70"/>
<path d="M208.1 44.497L231.3 32.397C231.3 32.397 285.1 2.19699 325.2 23.397C339.8 32.797 340.3 46.397 330.5 64.297C330.5 64.297 334.5 61.597 336 58.597C336 58.597 352.6 29.697 323.2 17.697C293.8 5.69699 255.3 20.897 255.3 20.897C255.3 20.897 231.9 28.697 208.1 44.497Z" fill="#BCBEC0"/>
<path d="M224.5 121.197C224.4 121.197 224.4 121.197 224.3 121.197C223.8 121.197 223.2 121.097 222.7 121.097C222.7 121.097 220 120.897 216 120.197C211 119.297 206 117.897 201.3 115.697C190.8 110.897 186.5 104.097 185.2 97.497L182.8 97.597C182.9 100.897 183.7 104.297 185.4 107.497C186.2 108.697 186.7 110.397 187.8 111.597C187.8 111.597 192.3 117.597 206.8 121.497C211.9 122.797 218 123.797 225.2 124.197C225.3 124.197 225.4 124.197 225.5 124.197C226.4 124.197 230.7 124.397 237.2 123.797C250.6 122.097 282.9 121.497 317.1 93.397C292.8 108.297 269.1 115.097 269.1 115.097C269.1 115.097 247.5 122.797 224.5 121.197Z" fill="#D9DBDB"/>
<path d="M237.2 123.897C230.7 124.397 226.5 124.297 225.5 124.297C225.4 124.297 225.3 124.297 225.3 124.297C218.1 123.897 212 122.897 206.9 121.597C195.1 118.497 188.6 113.397 185.4 107.597C183.7 104.397 182.9 100.997 182.8 97.697L174.1 98.097C172.5 103.897 172.6 109.497 174.6 114.397C179.4 125.997 193.3 130.497 202.4 132.197C207.5 133.097 223.3 137.197 252.5 128.997C266.3 125.097 288 117.097 311.5 99.697C307.3 101.597 303.1 103.597 298.9 105.497C274.6 118.897 250.9 122.797 237.2 123.897Z" fill="#6B6D70"/>
<path d="M185.2 97.497C186.5 104.197 190.8 110.897 201.3 115.697C206 117.797 210.9 119.297 216 120.197C218.2 120.597 220.5 120.897 222.7 121.097C223.2 121.097 223.8 121.197 224.3 121.197C224.4 121.197 224.4 121.197 224.5 121.197C247.5 122.797 269.1 115.197 269.1 115.197C269.1 115.197 292.8 108.297 317.1 93.497L293.5 104.597C293.5 104.597 293.2 104.697 292.7 104.997C290.2 106.197 281.9 109.997 270.5 113.397C251 119.097 222.5 123.297 199.5 109.897C194.2 106.197 190.9 101.997 189.4 97.297L185.2 97.497Z" fill="#BCBEC0"/>
<path d="M316.9 104.197V98.9971H315V98.2971H319.7V98.9971H317.7V104.197H316.9Z" fill="black"/>
<path d="M320.4 104.197V98.2971H323C323.5 98.2971 323.9 98.3971 324.2 98.4971C324.5 98.5971 324.7 98.7971 324.9 99.0971C325.1 99.3971 325.1 99.6971 325.1 99.9971C325.1 100.397 325 100.797 324.7 101.097C324.4 101.397 324 101.597 323.4 101.597C323.6 101.697 323.8 101.797 323.9 101.897C324.1 102.097 324.3 102.397 324.5 102.697L325.5 104.297H324.5L323.7 103.097C323.5 102.697 323.3 102.497 323.1 102.297C323 102.097 322.8 101.997 322.7 101.897C322.6 101.797 322.5 101.797 322.3 101.697C322.2 101.697 322.1 101.697 321.9 101.697H321V104.297H320.4V104.197ZM321.2 100.897H322.9C323.3 100.897 323.5 100.897 323.7 100.797C323.9 100.697 324.1 100.597 324.2 100.397C324.3 100.197 324.4 100.097 324.4 99.8971C324.4 99.5971 324.3 99.3971 324.1 99.1971C323.9 98.9971 323.6 98.8971 323.1 98.8971H321.2V100.897Z" fill="black"/>
<path d="M325.7 104.197L328 98.2971H328.8L331.2 104.197H330.4L329.7 102.397H327.2L326.6 104.197H325.7ZM327.4 101.797H329.4L328.8 100.197C328.6 99.6971 328.5 99.2971 328.4 98.9971C328.3 99.3971 328.2 99.7971 328.1 100.097L327.4 101.797Z" fill="black"/>
<path d="M331.9 104.197V98.2971H332.7L335.8 102.897V98.2971H336.5V104.197H335.7L332.6 99.5971V104.197H331.9Z" fill="black"/>
<path d="M337.6 102.297L338.3 102.197C338.3 102.497 338.4 102.697 338.5 102.897C338.6 103.097 338.8 103.197 339.1 103.397C339.4 103.497 339.7 103.597 340 103.597C340.3 103.597 340.6 103.597 340.8 103.497C341 103.397 341.2 103.297 341.3 103.097C341.4 102.897 341.5 102.797 341.5 102.597C341.5 102.397 341.4 102.297 341.3 102.097C341.2 101.997 341 101.797 340.8 101.797C340.6 101.697 340.3 101.597 339.7 101.497C339.2 101.397 338.8 101.197 338.6 101.097C338.3 100.997 338.1 100.797 338 100.497C337.9 100.297 337.8 99.997 337.8 99.797C337.8 99.497 337.9 99.197 338.1 98.997C338.3 98.697 338.5 98.497 338.8 98.397C339.1 98.297 339.5 98.197 339.9 98.197C340.3 98.197 340.7 98.297 341.1 98.397C341.4 98.497 341.7 98.697 341.9 98.997C342.1 99.297 342.2 99.597 342.2 99.897L341.5 99.997C341.5 99.597 341.3 99.297 341.1 99.197C340.9 98.997 340.5 98.897 340.1 98.897C339.6 98.897 339.3 98.997 339.1 99.197C338.9 99.397 338.8 99.597 338.8 99.797C338.8 99.997 338.9 100.197 339 100.297C339.2 100.397 339.5 100.597 340.2 100.697C340.8 100.797 341.3 100.997 341.5 101.097C341.8 101.297 342.1 101.497 342.3 101.697C342.5 101.897 342.5 102.197 342.5 102.497C342.5 102.797 342.4 103.097 342.2 103.397C342 103.697 341.8 103.897 341.4 103.997C341 104.097 340.7 104.197 340.3 104.197C339.8 104.197 339.3 104.097 339 103.997C338.6 103.797 338.4 103.597 338.1 103.297C337.7 103.097 337.6 102.697 337.6 102.297Z" fill="black"/>
<path d="M343.3 104.197V98.2971H345.5C345.9 98.2971 346.2 98.2971 346.4 98.3971C346.7 98.3971 346.9 98.4971 347.1 98.6971C347.3 98.7971 347.5 98.9971 347.6 99.2971C347.7 99.4971 347.8 99.7971 347.8 100.097C347.8 100.597 347.6 100.997 347.3 101.397C347 101.697 346.4 101.897 345.6 101.897H344.1V104.297H343.3V104.197ZM344.1 101.097H345.6C346.1 101.097 346.5 100.997 346.7 100.797C346.9 100.597 347 100.297 347 99.9971C347 99.7971 346.9 99.4971 346.8 99.3971C346.7 99.1971 346.5 99.0971 346.3 99.0971C346.2 99.0971 345.9 98.9971 345.6 98.9971H344.1V101.097Z" fill="black"/>
<path d="M348.6 101.297C348.6 100.297 348.9 99.597 349.4 98.997C349.9 98.397 350.6 98.197 351.4 98.197C351.9 98.197 352.4 98.297 352.9 98.597C353.3 98.897 353.7 99.197 353.9 99.697C354.1 100.197 354.2 100.697 354.2 101.297C354.2 101.897 354.1 102.397 353.8 102.897C353.6 103.397 353.2 103.697 352.8 103.997C352.4 104.197 351.9 104.397 351.4 104.397C350.8 104.397 350.3 104.297 349.9 103.997C349.5 103.697 349.1 103.397 348.9 102.897C348.7 102.297 348.6 101.797 348.6 101.297ZM349.4 101.297C349.4 101.997 349.6 102.597 350 102.997C350.4 103.397 350.9 103.597 351.4 103.597C352 103.597 352.5 103.397 352.9 102.997C353.3 102.597 353.5 101.997 353.5 101.197C353.5 100.697 353.4 100.297 353.3 99.897C353.1 99.497 352.9 99.297 352.6 99.097C352.3 98.897 351.9 98.797 351.5 98.797C350.9 98.797 350.5 98.997 350.1 99.397C349.6 99.797 349.4 100.497 349.4 101.297Z" fill="black"/>
<path d="M355.3 104.197V98.2971H357.9C358.4 98.2971 358.8 98.3971 359.1 98.4971C359.4 98.5971 359.6 98.7971 359.8 99.0971C360 99.3971 360 99.6971 360 99.9971C360 100.397 359.9 100.797 359.6 101.097C359.3 101.397 358.9 101.597 358.3 101.597C358.5 101.697 358.7 101.797 358.8 101.897C359 102.097 359.2 102.397 359.4 102.697L360.4 104.297H359.4L358.6 103.097C358.4 102.697 358.2 102.497 358 102.297C357.9 102.097 357.7 101.997 357.6 101.897C357.5 101.797 357.4 101.797 357.2 101.697C357.1 101.697 357 101.697 356.8 101.697H355.9V104.297H355.3V104.197ZM356.1 100.897H357.8C358.2 100.897 358.4 100.897 358.6 100.797C358.8 100.697 359 100.597 359.1 100.397C359.2 100.197 359.3 100.097 359.3 99.8971C359.3 99.5971 359.2 99.3971 359 99.1971C358.8 98.9971 358.5 98.8971 358 98.8971H356.1V100.897Z" fill="black"/>
<path d="M362.6 104.197V98.9971H360.7V98.2971H365.4V98.9971H363.4V104.197H362.6Z" fill="black"/>
<path d="M366.1 104.197V98.2971H370.4V98.9971H366.9V100.797H370.2V101.497H366.9V103.497H370.5V104.197H366.1Z" fill="black"/>
<path d="M371.7 104.197V103.397H372.5V104.197C372.5 104.497 372.4 104.697 372.3 104.897C372.2 105.097 372 105.197 371.8 105.297L371.6 104.997C371.8 104.897 371.9 104.797 371.9 104.697C372 104.597 372 104.397 372 104.097H371.7V104.197Z" fill="black"/>
<path d="M376.2 104.197V98.2971H377V103.497H379.9V104.197H376.2Z" fill="black"/>
<path d="M380.6 101.297C380.6 100.297 380.9 99.597 381.4 98.997C381.9 98.397 382.6 98.197 383.4 98.197C383.9 98.197 384.4 98.297 384.9 98.597C385.3 98.897 385.7 99.197 385.9 99.697C386.1 100.197 386.2 100.697 386.2 101.297C386.2 101.897 386.1 102.397 385.8 102.897C385.6 103.397 385.2 103.697 384.8 103.997C384.4 104.197 383.9 104.397 383.4 104.397C382.8 104.397 382.3 104.297 381.9 103.997C381.5 103.697 381.1 103.397 380.9 102.897C380.7 102.297 380.6 101.797 380.6 101.297ZM381.4 101.297C381.4 101.997 381.6 102.597 382 102.997C382.4 103.397 382.9 103.597 383.4 103.597C384 103.597 384.5 103.397 384.9 102.997C385.3 102.597 385.5 101.997 385.5 101.197C385.5 100.697 385.4 100.297 385.3 99.897C385.1 99.497 384.9 99.297 384.6 99.097C384.3 98.897 383.9 98.797 383.5 98.797C382.9 98.797 382.5 98.997 382.1 99.397C381.6 99.797 381.4 100.497 381.4 101.297Z" fill="black"/>
<path d="M390 101.897V101.197H392.5V103.397C392.1 103.697 391.7 103.897 391.3 104.097C390.9 104.297 390.5 104.297 390 104.297C389.4 104.297 388.9 104.197 388.4 103.897C387.9 103.697 387.6 103.297 387.3 102.797C387.1 102.297 386.9 101.797 386.9 101.197C386.9 100.597 387 100.097 387.3 99.597C387.5 99.097 387.9 98.697 388.3 98.497C388.7 98.297 389.3 98.097 389.9 98.097C390.3 98.097 390.7 98.197 391.1 98.297C391.4 98.397 391.7 98.597 391.9 98.897C392.1 99.097 392.2 99.497 392.3 99.897L391.6 100.097C391.5 99.797 391.4 99.597 391.3 99.397C391.2 99.197 391 99.097 390.7 98.997C390.5 98.897 390.2 98.797 389.9 98.797C389.5 98.797 389.2 98.897 389 98.997C388.8 99.097 388.5 99.297 388.4 99.397C388.2 99.597 388.1 99.797 388 99.997C387.8 100.397 387.8 100.797 387.8 101.197C387.8 101.697 387.9 102.197 388.1 102.497C388.3 102.797 388.5 103.097 388.9 103.297C389.2 103.497 389.6 103.597 390 103.597C390.3 103.597 390.7 103.497 391 103.397C391.3 103.297 391.6 103.097 391.7 102.997V101.897H390Z" fill="black"/>
<path d="M393.8 104.197V98.2971H394.6V104.197H393.8Z" fill="black"/>
<path d="M395.7 102.297L396.4 102.197C396.4 102.497 396.5 102.697 396.6 102.897C396.7 103.097 396.9 103.197 397.2 103.397C397.5 103.497 397.8 103.597 398.1 103.597C398.4 103.597 398.7 103.597 398.9 103.497C399.1 103.397 399.3 103.297 399.4 103.097C399.5 102.897 399.6 102.797 399.6 102.597C399.6 102.397 399.5 102.297 399.4 102.097C399.3 101.997 399.1 101.797 398.9 101.797C398.7 101.697 398.4 101.597 397.8 101.497C397.2 101.397 396.9 101.197 396.7 101.097C396.4 100.997 396.2 100.797 396.1 100.497C396 100.297 395.9 99.997 395.9 99.797C395.9 99.497 396 99.197 396.2 98.997C396.4 98.697 396.6 98.497 396.9 98.397C397.2 98.297 397.6 98.197 398 98.197C398.4 98.197 398.8 98.297 399.2 98.397C399.5 98.497 399.8 98.697 400 98.997C400.2 99.297 400.3 99.597 400.3 99.897L399.6 99.997C399.6 99.597 399.4 99.297 399.2 99.197C399 98.997 398.6 98.897 398.2 98.897C397.7 98.897 397.4 98.997 397.2 99.197C397 99.397 396.9 99.597 396.9 99.797C396.9 99.997 397 100.197 397.1 100.297C397.3 100.397 397.6 100.597 398.3 100.697C398.9 100.797 399.4 100.997 399.6 101.097C399.9 101.297 400.2 101.497 400.4 101.697C400.6 101.897 400.6 102.197 400.6 102.497C400.6 102.797 400.5 103.097 400.3 103.397C400.1 103.697 399.9 103.897 399.5 103.997C399.1 104.097 398.8 104.197 398.4 104.197C397.9 104.197 397.4 104.097 397.1 103.997C396.7 103.797 396.5 103.597 396.2 103.297C395.8 103.097 395.7 102.697 395.7 102.297Z" fill="black"/>
<path d="M402.9 104.197V98.9971H401V98.2971H405.7V98.9971H403.7V104.197H402.9Z" fill="black"/>
<path d="M406.6 104.197V98.2971H407.4V104.197H406.6Z" fill="black"/>
<path d="M413 102.097L413.8 102.297C413.6 102.897 413.3 103.397 412.9 103.797C412.5 104.097 412 104.297 411.3 104.297C410.7 104.297 410.1 104.197 409.7 103.897C409.3 103.597 409 103.297 408.8 102.797C408.6 102.297 408.5 101.797 408.5 101.197C408.5 100.597 408.6 99.997 408.9 99.597C409.1 99.097 409.5 98.797 409.9 98.597C410.3 98.397 410.8 98.197 411.3 98.197C411.9 98.197 412.4 98.397 412.8 98.697C413.2 98.997 413.5 99.397 413.6 99.997L412.8 100.197C412.7 99.797 412.5 99.497 412.2 99.297C411.9 99.097 411.6 98.997 411.2 98.997C410.7 98.997 410.4 99.097 410.1 99.297C409.8 99.497 409.6 99.797 409.5 100.197C409.4 100.597 409.3 100.897 409.3 101.297C409.3 101.797 409.4 102.197 409.5 102.597C409.6 102.997 409.9 103.297 410.2 103.397C410.5 103.597 410.8 103.697 411.2 103.697C411.6 103.697 412 103.597 412.3 103.297C412.6 102.997 412.9 102.597 413 102.097Z" fill="black"/>
<path d="M414.1 104.197L416.4 98.2971H417.2L419.6 104.197H418.7L418 102.397H415.5L414.9 104.197H414.1ZM415.8 101.797H417.8L417.2 100.197C417 99.6971 416.9 99.2971 416.8 98.9971C416.7 99.3971 416.6 99.7971 416.5 100.097L415.8 101.797Z" fill="black"/>
<path d="M423.6 104.197V101.697L421.3 98.2971H422.3L423.5 100.097C423.7 100.397 423.9 100.797 424.1 101.097C424.3 100.797 424.5 100.397 424.7 100.097L425.8 98.3971H426.7L424.3 101.797V104.297H423.6V104.197Z" fill="black"/>
<path d="M428.5 104.197L430.8 98.2971H431.6L434 104.197H433.1L432.4 102.397H429.9L429.3 104.197H428.5ZM430.2 101.797H432.2L431.6 100.197C431.4 99.6971 431.3 99.2971 431.2 98.9971C431.1 99.3971 431 99.7971 430.9 100.097L430.2 101.797Z" fill="black"/>
<path d="M434.6 104.197V98.2971H436.8C437.2 98.2971 437.5 98.2971 437.7 98.3971C438 98.3971 438.2 98.4971 438.4 98.6971C438.6 98.7971 438.8 98.9971 438.9 99.2971C439 99.4971 439.1 99.7971 439.1 100.097C439.1 100.597 438.9 100.997 438.6 101.397C438.3 101.697 437.7 101.897 436.9 101.897H435.4V104.297H434.6V104.197ZM435.4 101.097H436.9C437.4 101.097 437.8 100.997 438 100.797C438.2 100.597 438.3 100.297 438.3 99.9971C438.3 99.7971 438.2 99.4971 438.1 99.3971C438 99.1971 437.8 99.0971 437.6 99.0971C437.5 99.0971 437.2 98.9971 436.9 98.9971H435.4V101.097Z" fill="black"/>
<path d="M439.9 101.297C439.9 100.297 440.2 99.597 440.7 98.997C441.2 98.397 441.9 98.197 442.7 98.197C443.2 98.197 443.7 98.297 444.2 98.597C444.6 98.897 445 99.197 445.2 99.697C445.4 100.197 445.5 100.697 445.5 101.297C445.5 101.897 445.4 102.397 445.1 102.897C444.9 103.397 444.5 103.697 444.1 103.997C443.7 104.197 443.2 104.397 442.7 104.397C442.1 104.397 441.6 104.297 441.2 103.997C440.8 103.697 440.4 103.397 440.2 102.897C440 102.297 439.9 101.797 439.9 101.297ZM440.7 101.297C440.7 101.997 440.9 102.597 441.3 102.997C441.7 103.397 442.2 103.597 442.7 103.597C443.3 103.597 443.8 103.397 444.2 102.997C444.6 102.597 444.8 101.997 444.8 101.197C444.8 100.697 444.7 100.297 444.6 99.897C444.4 99.497 444.2 99.297 443.9 99.097C443.6 98.897 443.2 98.797 442.8 98.797C442.2 98.797 441.8 98.997 441.4 99.397C440.9 99.797 440.7 100.497 440.7 101.297Z" fill="black"/>
<path d="M448.2 104.197V101.697L445.9 98.2971H446.9L448.1 100.097C448.3 100.397 448.5 100.797 448.7 101.097C448.9 100.797 449.1 100.397 449.3 100.097L450.4 98.3971H451.3L448.9 101.797V104.297H448.2V104.197Z" fill="black"/>
<path d="M451.8 101.297C451.8 100.297 452.1 99.597 452.6 98.997C453.1 98.397 453.8 98.197 454.6 98.197C455.1 98.197 455.6 98.297 456.1 98.597C456.5 98.897 456.9 99.197 457.1 99.697C457.3 100.197 457.4 100.697 457.4 101.297C457.4 101.897 457.3 102.397 457 102.897C456.7 103.397 456.4 103.697 456 103.997C455.6 104.197 455.1 104.397 454.6 104.397C454 104.397 453.5 104.297 453.1 103.997C452.7 103.697 452.3 103.397 452.1 102.897C451.9 102.297 451.8 101.797 451.8 101.297ZM452.6 101.297C452.6 101.997 452.8 102.597 453.2 102.997C453.6 103.397 454.1 103.597 454.6 103.597C455.2 103.597 455.7 103.397 456.1 102.997C456.5 102.597 456.7 101.997 456.7 101.197C456.7 100.697 456.6 100.297 456.5 99.897C456.3 99.497 456.1 99.297 455.8 99.097C455.5 98.897 455.1 98.797 454.7 98.797C454.1 98.797 453.7 98.997 453.3 99.397C452.8 99.797 452.6 100.497 452.6 101.297Z" fill="black"/>
<path d="M460.8 104.197V98.2971H462.8C463.3 98.2971 463.6 98.2971 463.9 98.3971C464.2 98.4971 464.5 98.5971 464.8 98.7971C465.1 99.0971 465.3 99.3971 465.5 99.7971C465.7 100.197 465.7 100.697 465.7 101.197C465.7 101.597 465.6 101.997 465.5 102.397C465.4 102.697 465.3 102.997 465.1 103.297C464.9 103.497 464.8 103.697 464.6 103.797C464.4 103.897 464.2 103.997 463.9 104.097C463.6 104.197 463.3 104.197 463 104.197H460.8ZM461.5 103.497H462.8C463.2 103.497 463.5 103.497 463.7 103.397C463.9 103.297 464.1 103.197 464.2 103.097C464.4 102.897 464.5 102.697 464.6 102.397C464.7 102.097 464.8 101.697 464.8 101.297C464.8 100.697 464.7 100.197 464.5 99.8971C464.3 99.5971 464.1 99.2971 463.8 99.1971C463.6 99.0971 463.3 99.0971 462.8 99.0971H461.6V103.497H461.5Z" fill="black"/>
<path d="M466.7 104.197V98.2971H471V98.9971H467.5V100.797H470.8V101.497H467.5V103.497H471.1V104.197H466.7Z" fill="black"/>
<path d="M474.5 104.197V98.2971H476.7C477.1 98.2971 477.4 98.2971 477.6 98.3971C477.9 98.3971 478.1 98.4971 478.3 98.6971C478.5 98.7971 478.7 98.9971 478.8 99.2971C478.9 99.4971 479 99.7971 479 100.097C479 100.597 478.8 100.997 478.5 101.397C478.2 101.797 477.6 101.897 476.8 101.897H475.3V104.297H474.5V104.197ZM475.3 101.097H476.8C477.3 101.097 477.7 100.997 477.9 100.797C478.1 100.597 478.2 100.297 478.2 99.9971C478.2 99.7971 478.1 99.4971 478 99.3971C477.9 99.1971 477.7 99.0971 477.5 99.0971C477.4 99.0971 477.1 98.9971 476.8 98.9971H475.3V101.097Z" fill="black"/>
<path d="M478.8 104.197L481.1 98.2971H481.9L484.3 104.197H483.4L482.7 102.397H480.2L479.6 104.197H478.8ZM480.5 101.797H482.5L481.9 100.197C481.7 99.6971 481.6 99.2971 481.5 98.9971C481.4 99.3971 481.3 99.7971 481.2 100.097L480.5 101.797Z" fill="black"/>
<path d="M484.7 102.297L485.4 102.197C485.4 102.497 485.5 102.697 485.6 102.897C485.7 103.097 485.9 103.197 486.2 103.397C486.5 103.497 486.8 103.597 487.1 103.597C487.4 103.597 487.7 103.597 487.9 103.497C488.1 103.397 488.3 103.297 488.4 103.097C488.5 102.897 488.6 102.797 488.6 102.597C488.6 102.397 488.5 102.297 488.4 102.097C488.3 101.997 488.1 101.797 487.9 101.797C487.7 101.697 487.4 101.597 486.8 101.497C486.2 101.397 485.9 101.197 485.7 101.097C485.4 100.997 485.2 100.797 485.1 100.497C485 100.297 484.9 99.997 484.9 99.797C484.9 99.497 485 99.197 485.2 98.997C485.4 98.697 485.6 98.497 485.9 98.397C486.2 98.297 486.6 98.197 487 98.197C487.4 98.197 487.8 98.297 488.2 98.397C488.5 98.497 488.8 98.697 489 98.997C489.2 99.297 489.3 99.597 489.3 99.897L488.6 99.997C488.6 99.597 488.4 99.297 488.2 99.197C488 98.997 487.6 98.897 487.2 98.897C486.7 98.897 486.4 98.997 486.2 99.197C486 99.397 485.9 99.597 485.9 99.797C485.9 99.997 486 100.197 486.1 100.297C486.3 100.397 486.6 100.597 487.3 100.697C487.9 100.797 488.4 100.997 488.6 101.097C488.9 101.297 489.2 101.497 489.4 101.697C489.6 101.897 489.6 102.197 489.6 102.497C489.6 102.797 489.5 103.097 489.3 103.397C489.1 103.697 488.9 103.897 488.5 103.997C488.2 104.197 487.8 104.197 487.4 104.197C486.9 104.197 486.4 104.097 486.1 103.997C485.7 103.797 485.5 103.597 485.2 103.297C484.8 103.097 484.7 102.697 484.7 102.297Z" fill="black"/>
<path d="M489.8 104.197L492.1 98.2971H492.9L495.3 104.197H494.4L493.7 102.397H491.2L490.6 104.197H489.8ZM491.5 101.797H493.5L492.9 100.197C492.7 99.6971 492.6 99.2971 492.5 98.9971C492.4 99.3971 492.3 99.7971 492.2 100.097L491.5 101.797Z" fill="black"/>
<path d="M495.5 102.497L496.2 102.397C496.2 102.897 496.3 103.197 496.5 103.297C496.7 103.497 496.9 103.497 497.1 103.497C497.3 103.497 497.5 103.497 497.6 103.397C497.7 103.297 497.8 103.197 497.9 102.997C498 102.797 498 102.597 498 102.297V98.197H498.8V102.197C498.8 102.697 498.7 103.097 498.6 103.297C498.5 103.597 498.3 103.797 498 103.897C497.7 103.997 497.4 104.097 497.1 104.097C496.6 104.097 496.2 103.997 495.9 103.697C495.7 103.597 495.5 103.097 495.5 102.497Z" fill="black"/>
<path d="M500.1 104.197V98.2971H504.4V98.9971H500.9V100.797H504.2V101.497H500.9V103.497H504.5V104.197H500.1Z" fill="black"/>
<path d="M505.6 104.197V98.2971H508.2C508.7 98.2971 509.1 98.3971 509.4 98.4971C509.7 98.5971 509.9 98.7971 510.1 99.0971C510.3 99.3971 510.3 99.6971 510.3 99.9971C510.3 100.397 510.2 100.797 509.9 101.097C509.6 101.397 509.2 101.597 508.6 101.597C508.8 101.697 509 101.797 509.1 101.897C509.3 102.097 509.5 102.397 509.7 102.697L510.7 104.297H509.7L508.9 103.097C508.7 102.697 508.5 102.497 508.3 102.297C508.2 102.097 508 101.997 507.9 101.897C507.8 101.797 507.7 101.797 507.5 101.697C507.4 101.697 507.3 101.697 507.1 101.697H506.4V104.297H505.6V104.197ZM506.4 100.897H508.1C508.5 100.897 508.7 100.897 508.9 100.797C509.1 100.697 509.3 100.597 509.4 100.397C509.5 100.197 509.6 100.097 509.6 99.8971C509.6 99.5971 509.5 99.3971 509.3 99.1971C509.1 98.9971 508.8 98.8971 508.3 98.8971H506.4V100.897Z" fill="black"/>
<path d="M511.3 101.297C511.3 100.297 511.6 99.597 512.1 98.997C512.6 98.397 513.3 98.197 514.1 98.197C514.6 98.197 515.1 98.297 515.6 98.597C516 98.897 516.4 99.197 516.6 99.697C516.8 100.197 516.9 100.697 516.9 101.297C516.9 101.897 516.8 102.397 516.5 102.897C516.3 103.397 515.9 103.697 515.5 103.997C515.1 104.197 514.6 104.397 514.1 104.397C513.5 104.397 513 104.297 512.6 103.997C512.2 103.697 511.8 103.397 511.6 102.897C511.4 102.297 511.3 101.797 511.3 101.297ZM512.1 101.297C512.1 101.997 512.3 102.597 512.7 102.997C513.1 103.397 513.6 103.597 514.1 103.597C514.7 103.597 515.2 103.397 515.6 102.997C516 102.597 516.2 101.997 516.2 101.197C516.2 100.697 516.1 100.297 516 99.897C515.8 99.497 515.6 99.297 515.3 99.097C515 98.897 514.6 98.797 514.2 98.797C513.6 98.797 513.2 98.997 512.8 99.397C512.3 99.797 512.1 100.497 512.1 101.297Z" fill="black"/>
<path d="M517.7 102.297L518.4 102.197C518.4 102.497 518.5 102.697 518.6 102.897C518.7 103.097 518.9 103.197 519.2 103.397C519.5 103.497 519.8 103.597 520.1 103.597C520.4 103.597 520.7 103.597 520.9 103.497C521.1 103.397 521.3 103.297 521.4 103.097C521.5 102.897 521.6 102.797 521.6 102.597C521.6 102.397 521.5 102.297 521.4 102.097C521.3 101.997 521.1 101.797 520.9 101.797C520.7 101.697 520.4 101.597 519.8 101.497C519.2 101.397 518.9 101.197 518.7 101.097C518.4 100.997 518.2 100.797 518.1 100.497C518 100.297 517.9 99.997 517.9 99.797C517.9 99.497 518 99.197 518.2 98.997C518.4 98.697 518.6 98.497 518.9 98.397C519.2 98.297 519.6 98.197 520 98.197C520.4 98.197 520.8 98.297 521.2 98.397C521.5 98.497 521.8 98.697 522 98.997C522.2 99.297 522.3 99.597 522.3 99.897L521.6 99.997C521.6 99.597 521.4 99.297 521.2 99.197C521 98.997 520.6 98.897 520.2 98.897C519.7 98.897 519.4 98.997 519.2 99.197C519 99.397 518.9 99.597 518.9 99.797C518.9 99.997 519 100.197 519.1 100.297C519.3 100.397 519.6 100.597 520.3 100.697C520.9 100.797 521.4 100.997 521.6 101.097C521.9 101.297 522.2 101.497 522.4 101.697C522.6 101.897 522.6 102.197 522.6 102.497C522.6 102.797 522.5 103.097 522.3 103.397C522.1 103.697 521.9 103.897 521.5 103.997C521.2 104.197 520.8 104.197 520.4 104.197C519.9 104.197 519.4 104.097 519.1 103.997C518.7 103.797 518.5 103.597 518.2 103.297C517.8 103.097 517.7 102.697 517.7 102.297Z" fill="black"/>
<path d="M471.9 72.097H460.8C460.8 72.097 456.6 73.197 456 76.597C456 76.597 456.2 77.297 457 77.697C457.1 77.697 457.2 77.797 457.2 77.897C457.2 78.697 457.5 81.997 461.7 82.197H463.9C464.3 82.197 464.6 82.397 464.8 82.697C465 83.097 465 83.697 464.2 84.597C464 84.797 463.8 84.897 463.6 84.897H456.7C456.7 84.897 454.9 85.597 454.8 88.197H464.9C464.9 88.197 469 87.797 469.1 83.097V80.997C469.1 80.997 468.7 78.697 465.7 78.697H463.6C463.2 78.697 462.7 78.497 462.5 78.197C462.1 77.697 461.9 76.997 462.8 76.097C463 75.897 463.3 75.797 463.5 75.797H469.2C469.2 75.897 471.9 75.897 471.9 72.097Z" fill="#020202"/>
<path d="M519 72.097H507.9C507.9 72.097 503.7 73.197 503.1 76.597C503.1 76.597 503.3 77.297 504.1 77.697C504.2 77.697 504.3 77.797 504.3 77.897C504.3 78.697 504.6 81.997 508.8 82.197H511C511.4 82.197 511.7 82.397 511.9 82.697C512.1 83.097 512.1 83.697 511.3 84.597C511.1 84.797 510.9 84.897 510.7 84.897H503.8C503.8 84.897 502 85.597 501.9 88.197H512C512 88.197 516.1 87.797 516.2 83.097V80.997C516.2 80.997 515.8 78.697 512.8 78.697H510.7C510.3 78.697 509.8 78.497 509.6 78.197C509.2 77.697 509 76.997 509.9 76.097C510.1 75.897 510.4 75.797 510.6 75.797H516.3C516.3 75.897 519 75.897 519 72.097Z" fill="#020202"/>
<path d="M492.9 88.197V72.097H488.1C488.1 72.097 486.3 72.297 484.9 74.497L476.5 88.197H481.5L483.6 85.097H488.8V88.197H492.9ZM488.7 82.297H484.7L488 76.997H488.7V82.297Z" fill="#020202"/>
<path d="M471.5 88.697H470.2C470.2 86.797 471.7 85.297 473.6 85.297H474.9C474.9 87.197 473.3 88.697 471.5 88.697Z" fill="#020202"/>
<path d="M497.1 88.697H495.8C495.8 86.797 497.3 85.297 499.2 85.297H500.5C500.4 87.197 498.9 88.697 497.1 88.697Z" fill="#020202"/>
<path d="M519 88.697H517.7C517.7 86.797 519.2 85.297 521.1 85.297H522.4C522.4 87.197 520.9 88.697 519 88.697Z" fill="#020202"/>
<path d="M62.5 38.397H32.8C32.8 38.397 15 38.097 8.9 56.597C8.9 56.597 13.9 50.097 26.5 49.997L32.2 50.097L62.5 38.397Z" fill="url(#paint0_linear_30_95)"/>
<path d="M90.8 48.097C90.8 48.097 84.1 36.497 65 40.397C45.7 44.297 15.9 55.397 0 78.997C0 78.997 10.9 52.597 57.6 39.397C71.7 35.197 90.4 36.797 90.8 48.097Z" fill="url(#paint1_linear_30_95)"/>
<path d="M5.60001 77.897C5.60001 77.897 16.2 65.797 26.9 60.597C27.2 60.497 27.5 60.697 27.4 60.897L18.4 88.797H33.7L45 53.797C45.1 53.397 45.5 53.097 46 52.897C51.8 51.497 88.3 43.497 90.5 62.297C90.5 62.297 96.1 50.497 74.4 47.297C46.9 43.397 12.4 64.397 5.60001 77.897Z" fill="url(#paint2_linear_30_95)"/>
<defs>
<linearGradient id="paint0_linear_30_95" x1="8.8976" y1="47.4709" x2="62.5302" y2="47.4709" gradientUnits="userSpaceOnUse">
<stop stop-color="#891E2A"/>
<stop offset="0.0852944" stop-color="#921E2A"/>
<stop offset="0.4856" stop-color="#BA1E2B"/>
<stop offset="0.8044" stop-color="#D21E2C"/>
<stop offset="1" stop-color="#DB1E2C"/>
</linearGradient>
<linearGradient id="paint1_linear_30_95" x1="-0.0714" y1="58.1257" x2="90.7651" y2="58.1257" gradientUnits="userSpaceOnUse">
<stop stop-color="#891E2A"/>
<stop offset="1" stop-color="#DB1E2C"/>
</linearGradient>
<linearGradient id="paint2_linear_30_95" x1="5.57571" y1="67.9322" x2="91.153" y2="67.9322" gradientUnits="userSpaceOnUse">
<stop stop-color="#2D2D2D"/>
<stop offset="1" stop-color="#535552"/>
</linearGradient>
</defs>
</svg>
