<svg width="35" height="30" viewBox="0 0 35 30" fill="none" xmlns="http://www.w3.org/2000/svg">
<rect width="34.8093" height="29.3645" rx="7" fill="white"/>
<path d="M22.4162 13.3912H17.8679C17.8679 13.3912 17.462 13.4326 17.172 14.5676L15.8713 19.4224H23.9737C23.9737 19.4224 25.0092 17.8483 24.9844 15.7854C24.9678 13.7308 23.9323 13.6066 22.4162 13.3912ZM22.5156 16.647C22.5156 16.647 22.4493 18.7596 20.461 19.1655H19.7568C19.7568 19.1655 19.0278 19.1821 18.7958 18.9419L19.6325 15.8683C19.6325 15.8683 19.7982 15.2552 20.7924 15.2469H21.1321C21.1321 15.2469 22.499 15.2718 22.5073 16.2328V16.647H22.5156Z" fill="#C41E2C"/>
<path d="M15.7057 20.4662H23.079C23.079 20.4662 23.3027 21.2035 21.48 21.1952H18.7627C18.7627 21.1952 18.1579 21.2035 18.0171 21.7669L17.5697 23.4983C17.5697 23.4983 15.7637 24.0783 14.637 24.2522L15.5317 20.7147C15.5234 20.7147 15.5897 20.4662 15.7057 20.4662Z" fill="#C61C30"/>
<path d="M11.4474 24.8488C11.4391 24.8488 11.4226 24.8488 11.4143 24.8488C11.3232 24.8488 11.232 24.8488 11.1492 24.8488C11.1492 24.8488 10.7018 24.8488 10.0391 24.7742C9.21059 24.6831 8.37385 24.5091 7.58681 24.2109C5.80562 23.5398 5.01859 22.4794 4.73691 21.4024L4.34753 21.4521C4.40553 21.9989 4.56293 22.5457 4.88603 23.051C5.03516 23.2333 5.12629 23.515 5.32512 23.6972C5.32512 23.6972 6.13701 24.6334 8.56439 25.1139C9.41771 25.2713 10.4201 25.3624 11.6131 25.3458C11.6297 25.3458 11.638 25.3458 11.6545 25.3458C11.812 25.3376 12.5079 25.3127 13.5683 25.1553C15.7554 24.7328 21.0493 24.2689 26.3431 19.265C22.5157 21.974 18.7047 23.3658 18.7047 23.3658C18.7047 23.3658 15.2418 24.8488 11.4474 24.8488Z" fill="#D9DBDB"/>
<path d="M18.92 23.0427C20.7509 22.3634 22.0848 21.6426 22.4741 21.4189C21.4137 21.9574 20.1959 22.5208 18.92 23.0427Z" fill="#D9DBDB"/>
<path d="M13.5599 25.1387C12.4995 25.2961 11.8036 25.321 11.6462 25.3292C11.6214 25.3292 11.6131 25.3292 11.6131 25.3292H11.6048C10.4118 25.3375 9.40108 25.2547 8.55605 25.0973C6.57603 24.7245 5.46589 23.954 4.87769 23.0344C4.55459 22.529 4.39718 21.9823 4.33919 21.4355L2.91424 21.6012C2.72369 22.5705 2.75683 23.5149 3.17935 24.2771C4.13207 25.9754 6.42691 26.7211 7.94299 26.8785C8.8543 26.9779 11.4308 27.3921 16.1282 25.7849C18.365 25.0227 21.828 23.4321 25.4898 20.3088C24.8187 20.6733 24.1559 21.0378 23.4849 21.4106C19.6326 23.896 15.7885 24.8073 13.5599 25.1387Z" fill="#6B6D70"/>
<path d="M4.72864 21.3941C5.01031 22.4793 5.79735 23.5398 7.57854 24.2025C8.37386 24.5008 9.20232 24.683 10.0308 24.7659C10.4036 24.8073 10.7764 24.8322 11.1409 24.8405C11.232 24.8405 11.3232 24.8405 11.406 24.8405C11.4143 24.8405 11.4309 24.8405 11.4392 24.8405C15.2252 24.8405 18.6882 23.3492 18.6882 23.3492C18.6882 23.3492 22.5074 21.9574 26.3266 19.2484L22.5737 21.3444C22.5737 21.3444 22.5322 21.3692 22.4577 21.4106C22.0683 21.6343 20.7428 22.3551 18.9036 23.0344C15.7637 24.1943 11.1409 25.1967 7.21402 23.2664C6.311 22.7196 5.7145 22.0651 5.40797 21.3112L4.72864 21.3941Z" fill="#BCBEC0"/>
<path d="M20.2042 8.14698H13.5765C13.5765 8.14698 9.60822 8.07242 8.26611 12.8526C8.26611 12.8526 9.38453 11.1543 12.1764 11.146L13.4523 11.1709L20.2042 8.14698Z" fill="url(#paint0_linear_30_202)"/>
<path d="M26.4922 10.6572C26.4922 10.6572 24.9927 7.6582 20.751 8.66064C16.4513 9.68793 9.81534 12.5461 6.26953 18.6601C6.26953 18.6601 8.68863 11.8254 19.1024 8.39553C22.2505 7.31853 26.4177 7.72448 26.4922 10.6572Z" fill="url(#paint1_linear_30_202)"/>
<path d="M7.52039 18.3868C7.52039 18.3868 9.88978 15.2469 12.2592 13.9131C12.3172 13.8799 12.3834 13.9296 12.3669 13.9959L10.3703 21.2367H13.7835L16.3103 12.1733C16.3435 12.0656 16.4263 11.9828 16.534 11.9496C17.8264 11.5851 25.9453 9.51395 26.4341 14.3936C26.4341 14.3936 27.6934 11.3366 22.8469 10.4915C16.7246 9.43939 9.03647 14.8824 7.52039 18.3868Z" fill="url(#paint2_linear_30_202)"/>
<path d="M29.4333 5.49588C29.4333 5.49588 27.7929 3.549 21.9109 4.18691C21.9109 4.18691 13.7837 5.25562 8.58093 10.6737C8.58093 10.6737 17.4206 4.60942 23.5761 4.55972C23.5761 4.55972 33.4679 4.14549 28.8451 12.6455C28.8533 12.6538 32.8217 8.2795 29.4333 5.49588Z" fill="#D9DBDB"/>
<path d="M9.39282 9.59676C12.9469 6.3492 16.3602 4.65914 18.5639 3.79754C22.8387 2.11577 25.8212 2.33945 26.7076 2.4223C28.232 2.55485 30.6428 3.20105 31.5624 4.85797C32.5731 6.6723 31.8192 9.43107 29.6984 11.6596C29.6984 11.6596 34.0312 3.63185 23.0955 4.10407C23.0955 4.10407 17.1803 4.38575 11.3646 8.43692C10.7018 8.81801 10.0473 9.20739 9.39282 9.59676Z" fill="#6B6D70"/>
<path d="M8.58923 10.6821L12.2676 8.46179C12.2676 8.46179 20.7676 2.95254 27.5527 6.00955C30.0463 7.40137 30.27 9.62164 28.8534 12.6538C28.8534 12.6538 29.4747 12.1733 29.6901 11.6597C29.6901 11.6597 32.1092 6.75517 27.1633 5.08996C22.2174 3.42476 16.0785 6.31608 16.0785 6.31608C16.0785 6.31608 12.3173 7.84045 8.58923 10.6821Z" fill="#BCBEC0"/>
<defs>
<linearGradient id="paint0_linear_30_202" x1="8.26" y1="10.4967" x2="20.202" y2="10.4967" gradientUnits="userSpaceOnUse">
<stop stop-color="#891E2A"/>
<stop offset="0.0852944" stop-color="#921E2A"/>
<stop offset="0.4856" stop-color="#BA1E2B"/>
<stop offset="0.8044" stop-color="#D21E2C"/>
<stop offset="1" stop-color="#DB1E2C"/>
</linearGradient>
<linearGradient id="paint1_linear_30_202" x1="6.26296" y1="13.2593" x2="26.4888" y2="13.2593" gradientUnits="userSpaceOnUse">
<stop stop-color="#891E2A"/>
<stop offset="1" stop-color="#DB1E2C"/>
</linearGradient>
<linearGradient id="paint2_linear_30_202" x1="7.52024" y1="15.802" x2="26.5751" y2="15.802" gradientUnits="userSpaceOnUse">
<stop stop-color="#2D2D2D"/>
<stop offset="1" stop-color="#535552"/>
</linearGradient>
</defs>
</svg>
